<svg xmlns="http://www.w3.org/2000/svg" xmlns:xlink="http://www.w3.org/1999/xlink" id="terminal" baseProfile="full" viewBox="0 0 1600 1022" width="1600" version="1.1">
    <defs>
        <termtosvg:template_settings xmlns:termtosvg="https://github.com/nbedos/termtosvg">
            <termtosvg:screen_geometry columns="200" rows="60"/>
            <termtosvg:animation type="css"/>
        </termtosvg:template_settings>
        <style type="text/css" id="generated-style"><![CDATA[#screen {
                font-family: 'DejaVu Sans Mono', monospace;
                font-style: normal;
                font-size: 14px;
            }

        text {
            dominant-baseline: text-before-edge;
            white-space: pre;
        }
    
            :root {
                --animation-duration: 19310ms;
            }

            @keyframes roll {
                0.000%{transform:translateY(0px)}
7.043%{transform:translateY(-1054px)}
10.528%{transform:translateY(-2108px)}
10.854%{transform:translateY(-3162px)}
22.600%{transform:translateY(-4216px)}
23.263%{transform:translateY(-5270px)}
23.656%{transform:translateY(-6324px)}
23.843%{transform:translateY(-7378px)}
23.915%{transform:translateY(-8432px)}
23.941%{transform:translateY(-9486px)}
24.448%{transform:translateY(-10540px)}
24.495%{transform:translateY(-11594px)}
24.542%{transform:translateY(-12648px)}
24.588%{transform:translateY(-13702px)}
24.630%{transform:translateY(-14756px)}
24.676%{transform:translateY(-15810px)}
24.707%{transform:translateY(-16864px)}
25.194%{transform:translateY(-17918px)}
25.246%{transform:translateY(-18972px)}
25.277%{transform:translateY(-20026px)}
25.329%{transform:translateY(-21080px)}
25.355%{transform:translateY(-22134px)}
25.365%{transform:translateY(-23188px)}
25.401%{transform:translateY(-24242px)}
25.443%{transform:translateY(-25296px)}
25.479%{transform:translateY(-26350px)}
25.577%{transform:translateY(-27404px)}
25.619%{transform:translateY(-28458px)}
25.629%{transform:translateY(-29512px)}
25.676%{transform:translateY(-30566px)}
25.733%{transform:translateY(-31620px)}
25.774%{transform:translateY(-32674px)}
25.826%{transform:translateY(-33728px)}
25.847%{transform:translateY(-34782px)}
25.898%{transform:translateY(-35836px)}
25.924%{transform:translateY(-36890px)}
25.955%{transform:translateY(-37944px)}
94.821%{transform:translateY(-38998px)}
100.000%{transform:translateY(-38998px)}
            }

            #screen_view {
                animation-duration: 19310ms;
                animation-iteration-count:infinite;
                animation-name:roll;
                animation-timing-function: steps(1,end);
                animation-fill-mode: forwards;
            }
        ]]></style>
        <style type="text/css" id="user-style">
            /* The colors defined below are the default 16 colors used for rendering text of the terminal. Adjust
               them as needed.
               PowerShell colors based on https://en.wikipedia.org/wiki/ANSI_escape_code#Colors */
            .foreground {fill: #cccccc;}
            .background {fill: #0c0c0c;}
            .color0 {fill: #0c0c0c;}
            .color1 {fill: #c50f1f;}
            .color2 {fill: #13a10e;}
            .color3 {fill: #c19c00;}
            .color4 {fill: #0037da;}
            .color5 {fill: #881798;}
            .color6 {fill: #3a96dd;}
            .color7 {fill: #cccccc;}
            .color8 {fill: #767676;}
            .color9 {fill: #e74856;}
            .color10 {fill: #16c60c;}
            .color11 {fill: #f9f1a5;}
            .color12 {fill: #3b78ff;}
            .color13 {fill: #b4009e;}
            .color14 {fill: #61d6d6;}
            .color15 {fill: #f2f2f2;}
        </style>
    </defs>
    <svg id="screen" width="1600" height="1020" viewBox="0 0 1600 1020" preserveAspectRatio="xMidYMin slice">
    <rect class="background" height="100%" width="100%" x="0" y="0"/><defs><g id="g1"><text x="0" textLength="248" class="foreground">poddingue@station-p1:~/libltc$ </text><text x="248" textLength="8" class="background"> </text></g><g id="g2"><text x="0" textLength="248" class="foreground">poddingue@station-p1:~/libltc$ </text><text x="248" textLength="144" class="background">sudo make install </text></g><g id="g3"><text x="0" textLength="384" class="foreground">poddingue@station-p1:~/libltc$ sudo make install</text></g><g id="g4"><text x="0" textLength="8" class="background"> </text></g><g id="g5"><text x="0" textLength="248" class="foreground">[sudo] password for poddingue: </text><text x="248" textLength="8" class="background"> </text></g><g id="g6"><text x="0" textLength="248" class="foreground">[sudo] password for poddingue: </text></g><g id="g7"><text x="0" textLength="168" class="foreground">Making install in src</text></g><g id="g8"><text x="0" textLength="448" class="foreground">make[1]: Entering directory '/home/poddingue/libltc/src'</text></g><g id="g9"><text x="0" textLength="448" class="foreground">make[2]: Entering directory '/home/poddingue/libltc/src'</text></g><g id="g10"><text x="0" textLength="280" class="foreground"> /usr/bin/mkdir -p '/usr/local/lib'</text></g><g id="g11"><text x="0" textLength="696" class="foreground"> /bin/bash ../libtool   --mode=install /usr/bin/install -c   libltc.la '/usr/local/lib'</text></g><g id="g12"><text x="0" textLength="736" class="foreground">libtool: install: /usr/bin/install -c .libs/libltc.so.11.1.0 /usr/local/lib/libltc.so.11.1.0</text></g><g id="g13"><text x="0" textLength="1200" class="foreground">libtool: install: (cd /usr/local/lib &amp;&amp; { ln -s -f libltc.so.11.1.0 libltc.so.11 || { rm -f libltc.so.11 &amp;&amp; ln -s libltc.so.11.1.0 libltc.so.11; }; })</text></g><g id="g14"><text x="0" textLength="1128" class="foreground">libtool: install: (cd /usr/local/lib &amp;&amp; { ln -s -f libltc.so.11.1.0 libltc.so || { rm -f libltc.so &amp;&amp; ln -s libltc.so.11.1.0 libltc.so; }; })</text></g><g id="g15"><text x="0" textLength="632" class="foreground">libtool: install: /usr/bin/install -c .libs/libltc.lai /usr/local/lib/libltc.la</text></g><g id="g16"><text x="0" textLength="608" class="foreground">libtool: install: /usr/bin/install -c .libs/libltc.a /usr/local/lib/libltc.a</text></g><g id="g17"><text x="0" textLength="408" class="foreground">libtool: install: chmod 644 /usr/local/lib/libltc.a</text></g><g id="g18"><text x="0" textLength="384" class="foreground">libtool: install: ranlib /usr/local/lib/libltc.a</text></g><g id="g19"><text x="0" textLength="936" class="foreground">libtool: finish: PATH="/usr/local/sbin:/usr/local/bin:/usr/sbin:/usr/bin:/sbin:/bin:/sbin" ldconfig -n /usr/local/lib</text></g><g id="g20"><text x="0" textLength="560" class="foreground">----------------------------------------------------------------------</text></g><g id="g21"><text x="0" textLength="264" class="foreground">Libraries have been installed in:</text></g><g id="g22"><text x="0" textLength="136" class="foreground">   /usr/local/lib</text></g><g id="g23"><text x="0" textLength="496" class="foreground">If you ever happen to want to link against installed libraries</text></g><g id="g24"><text x="0" textLength="496" class="foreground">in a given directory, LIBDIR, you must either use libtool, and</text></g><g id="g25"><text x="0" textLength="504" class="foreground">specify the full pathname of the library, or use the '-LLIBDIR'</text></g><g id="g26"><text x="0" textLength="456" class="foreground">flag during linking and do at least one of the following:</text></g><g id="g27"><text x="0" textLength="488" class="foreground">   - add LIBDIR to the 'LD_LIBRARY_PATH' environment variable</text></g><g id="g28"><text x="0" textLength="168" class="foreground">     during execution</text></g><g id="g29"><text x="0" textLength="456" class="foreground">   - add LIBDIR to the 'LD_RUN_PATH' environment variable</text></g><g id="g30"><text x="0" textLength="152" class="foreground">     during linking</text></g><g id="g31"><text x="0" textLength="384" class="foreground">   - use the '-Wl,-rpath -Wl,LIBDIR' linker flag</text></g><g id="g32"><text x="0" textLength="536" class="foreground">   - have your system administrator add LIBDIR to '/etc/ld.so.conf'</text></g><g id="g33"><text x="0" textLength="520" class="foreground">See any operating system documentation about shared libraries for</text></g><g id="g34"><text x="0" textLength="496" class="foreground">more information, such as the ld(1) and ld.so(8) manual pages.</text></g><g id="g35"><text x="0" textLength="312" class="foreground"> /usr/bin/mkdir -p '/usr/local/include'</text></g><g id="g36"><text x="0" textLength="432" class="foreground"> /usr/bin/install -c -m 644 ltc.h '/usr/local/include'</text></g><g id="g37"><text x="0" textLength="440" class="foreground">make[2]: Leaving directory '/home/poddingue/libltc/src'</text></g><g id="g38"><text x="0" textLength="440" class="foreground">make[1]: Leaving directory '/home/poddingue/libltc/src'</text></g><g id="g39"><text x="0" textLength="168" class="foreground">Making install in doc</text></g><g id="g40"><text x="0" textLength="448" class="foreground">make[1]: Entering directory '/home/poddingue/libltc/doc'</text></g><g id="g41"><text x="0" textLength="448" class="foreground">make[2]: Entering directory '/home/poddingue/libltc/doc'</text></g><g id="g42"><text x="0" textLength="400" class="foreground">make[2]: Nothing to be done for 'install-exec-am'.</text></g><g id="g43"><text x="0" textLength="368" class="foreground"> /usr/bin/mkdir -p '/usr/local/share/man/man3'</text></g><g id="g44"><text x="0" textLength="576" class="foreground"> /usr/bin/install -c -m 644 man/man3/ltc.h.3 '/usr/local/share/man/man3'</text></g><g id="g45"><text x="0" textLength="440" class="foreground">make[2]: Leaving directory '/home/poddingue/libltc/doc'</text></g><g id="g46"><text x="0" textLength="440" class="foreground">make[1]: Leaving directory '/home/poddingue/libltc/doc'</text></g><g id="g47"><text x="0" textLength="184" class="foreground">Making install in tests</text></g><g id="g48"><text x="0" textLength="464" class="foreground">make[1]: Entering directory '/home/poddingue/libltc/tests'</text></g><g id="g49"><text x="0" textLength="464" class="foreground">make[2]: Entering directory '/home/poddingue/libltc/tests'</text></g><g id="g50"><text x="0" textLength="400" class="foreground">make[2]: Nothing to be done for 'install-data-am'.</text></g><g id="g51"><text x="0" textLength="456" class="foreground">make[2]: Leaving directory '/home/poddingue/libltc/tests'</text></g><g id="g52"><text x="0" textLength="456" class="foreground">make[1]: Leaving directory '/home/poddingue/libltc/tests'</text></g><g id="g53"><text x="0" textLength="416" class="foreground">make[1]: Entering directory '/home/poddingue/libltc'</text></g><g id="g54"><text x="0" textLength="416" class="foreground">make[2]: Entering directory '/home/poddingue/libltc'</text></g><g id="g55"><text x="0" textLength="360" class="foreground"> /usr/bin/mkdir -p '/usr/local/lib/pkgconfig'</text></g><g id="g56"><text x="0" textLength="488" class="foreground"> /usr/bin/install -c -m 644 ltc.pc '/usr/local/lib/pkgconfig'</text></g><g id="g57"><text x="0" textLength="408" class="foreground">make[2]: Leaving directory '/home/poddingue/libltc'</text></g><g id="g58"><text x="0" textLength="408" class="foreground">make[1]: Leaving directory '/home/poddingue/libltc'</text></g><g id="g59"><text x="0" textLength="248" class="foreground">poddingue@station-p1:~/libltc$ </text></g><g id="g60"><text x="0" textLength="32" class="foreground">exit</text></g></defs><g id="screen_view"><g><rect x="248" y="0" width="8" height="17" class="foreground"/><use xlink:href="#g1" y="0"/></g><g><rect x="248" y="1054" width="144" height="17" class="foreground"/><use xlink:href="#g2" y="1054"/></g><g><use xlink:href="#g3" y="2108"/><rect x="0" y="2125" width="8" height="17" class="foreground"/><use xlink:href="#g4" y="2125"/></g><g><use xlink:href="#g3" y="3162"/><rect x="248" y="3179" width="8" height="17" class="foreground"/><use xlink:href="#g5" y="3179"/></g><g><use xlink:href="#g3" y="4216"/><use xlink:href="#g6" y="4233"/><rect x="0" y="4250" width="8" height="17" class="foreground"/><use xlink:href="#g4" y="4250"/></g><g><use xlink:href="#g3" y="5270"/><use xlink:href="#g6" y="5287"/><use xlink:href="#g7" y="5304"/><rect x="0" y="5321" width="8" height="17" class="foreground"/><use xlink:href="#g4" y="5321"/></g><g><use xlink:href="#g3" y="6324"/><use xlink:href="#g6" y="6341"/><use xlink:href="#g7" y="6358"/><use xlink:href="#g8" y="6375"/><rect x="0" y="6392" width="8" height="17" class="foreground"/><use xlink:href="#g4" y="6392"/></g><g><use xlink:href="#g3" y="7378"/><use xlink:href="#g6" y="7395"/><use xlink:href="#g7" y="7412"/><use xlink:href="#g8" y="7429"/><use xlink:href="#g9" y="7446"/><rect x="0" y="7463" width="8" height="17" class="foreground"/><use xlink:href="#g4" y="7463"/></g><g><use xlink:href="#g3" y="8432"/><use xlink:href="#g6" y="8449"/><use xlink:href="#g7" y="8466"/><use xlink:href="#g8" y="8483"/><use xlink:href="#g9" y="8500"/><use xlink:href="#g10" y="8517"/><rect x="0" y="8534" width="8" height="17" class="foreground"/><use xlink:href="#g4" y="8534"/></g><g><use xlink:href="#g3" y="9486"/><use xlink:href="#g6" y="9503"/><use xlink:href="#g7" y="9520"/><use xlink:href="#g8" y="9537"/><use xlink:href="#g9" y="9554"/><use xlink:href="#g10" y="9571"/><use xlink:href="#g11" y="9588"/><rect x="0" y="9605" width="8" height="17" class="foreground"/><use xlink:href="#g4" y="9605"/></g><g><use xlink:href="#g3" y="10540"/><use xlink:href="#g6" y="10557"/><use xlink:href="#g7" y="10574"/><use xlink:href="#g8" y="10591"/><use xlink:href="#g9" y="10608"/><use xlink:href="#g10" y="10625"/><use xlink:href="#g11" y="10642"/><use xlink:href="#g12" y="10659"/><rect x="0" y="10676" width="8" height="17" class="foreground"/><use xlink:href="#g4" y="10676"/></g><g><use xlink:href="#g3" y="11594"/><use xlink:href="#g6" y="11611"/><use xlink:href="#g7" y="11628"/><use xlink:href="#g8" y="11645"/><use xlink:href="#g9" y="11662"/><use xlink:href="#g10" y="11679"/><use xlink:href="#g11" y="11696"/><use xlink:href="#g12" y="11713"/><use xlink:href="#g13" y="11730"/><rect x="0" y="11747" width="8" height="17" class="foreground"/><use xlink:href="#g4" y="11747"/></g><g><use xlink:href="#g3" y="12648"/><use xlink:href="#g6" y="12665"/><use xlink:href="#g7" y="12682"/><use xlink:href="#g8" y="12699"/><use xlink:href="#g9" y="12716"/><use xlink:href="#g10" y="12733"/><use xlink:href="#g11" y="12750"/><use xlink:href="#g12" y="12767"/><use xlink:href="#g13" y="12784"/><use xlink:href="#g14" y="12801"/><rect x="0" y="12818" width="8" height="17" class="foreground"/><use xlink:href="#g4" y="12818"/></g><g><use xlink:href="#g3" y="13702"/><use xlink:href="#g6" y="13719"/><use xlink:href="#g7" y="13736"/><use xlink:href="#g8" y="13753"/><use xlink:href="#g9" y="13770"/><use xlink:href="#g10" y="13787"/><use xlink:href="#g11" y="13804"/><use xlink:href="#g12" y="13821"/><use xlink:href="#g13" y="13838"/><use xlink:href="#g14" y="13855"/><use xlink:href="#g15" y="13872"/><rect x="0" y="13889" width="8" height="17" class="foreground"/><use xlink:href="#g4" y="13889"/></g><g><use xlink:href="#g3" y="14756"/><use xlink:href="#g6" y="14773"/><use xlink:href="#g7" y="14790"/><use xlink:href="#g8" y="14807"/><use xlink:href="#g9" y="14824"/><use xlink:href="#g10" y="14841"/><use xlink:href="#g11" y="14858"/><use xlink:href="#g12" y="14875"/><use xlink:href="#g13" y="14892"/><use xlink:href="#g14" y="14909"/><use xlink:href="#g15" y="14926"/><use xlink:href="#g16" y="14943"/><rect x="0" y="14960" width="8" height="17" class="foreground"/><use xlink:href="#g4" y="14960"/></g><g><use xlink:href="#g3" y="15810"/><use xlink:href="#g6" y="15827"/><use xlink:href="#g7" y="15844"/><use xlink:href="#g8" y="15861"/><use xlink:href="#g9" y="15878"/><use xlink:href="#g10" y="15895"/><use xlink:href="#g11" y="15912"/><use xlink:href="#g12" y="15929"/><use xlink:href="#g13" y="15946"/><use xlink:href="#g14" y="15963"/><use xlink:href="#g15" y="15980"/><use xlink:href="#g16" y="15997"/><use xlink:href="#g17" y="16014"/><rect x="0" y="16031" width="8" height="17" class="foreground"/><use xlink:href="#g4" y="16031"/></g><g><use xlink:href="#g3" y="16864"/><use xlink:href="#g6" y="16881"/><use xlink:href="#g7" y="16898"/><use xlink:href="#g8" y="16915"/><use xlink:href="#g9" y="16932"/><use xlink:href="#g10" y="16949"/><use xlink:href="#g11" y="16966"/><use xlink:href="#g12" y="16983"/><use xlink:href="#g13" y="17000"/><use xlink:href="#g14" y="17017"/><use xlink:href="#g15" y="17034"/><use xlink:href="#g16" y="17051"/><use xlink:href="#g17" y="17068"/><use xlink:href="#g18" y="17085"/><rect x="0" y="17102" width="8" height="17" class="foreground"/><use xlink:href="#g4" y="17102"/></g><g><use xlink:href="#g3" y="17918"/><use xlink:href="#g6" y="17935"/><use xlink:href="#g7" y="17952"/><use xlink:href="#g8" y="17969"/><use xlink:href="#g9" y="17986"/><use xlink:href="#g10" y="18003"/><use xlink:href="#g11" y="18020"/><use xlink:href="#g12" y="18037"/><use xlink:href="#g13" y="18054"/><use xlink:href="#g14" y="18071"/><use xlink:href="#g15" y="18088"/><use xlink:href="#g16" y="18105"/><use xlink:href="#g17" y="18122"/><use xlink:href="#g18" y="18139"/><use xlink:href="#g19" y="18156"/><rect x="0" y="18173" width="8" height="17" class="foreground"/><use xlink:href="#g4" y="18173"/></g><g><use xlink:href="#g3" y="18972"/><use xlink:href="#g6" y="18989"/><use xlink:href="#g7" y="19006"/><use xlink:href="#g8" y="19023"/><use xlink:href="#g9" y="19040"/><use xlink:href="#g10" y="19057"/><use xlink:href="#g11" y="19074"/><use xlink:href="#g12" y="19091"/><use xlink:href="#g13" y="19108"/><use xlink:href="#g14" y="19125"/><use xlink:href="#g15" y="19142"/><use xlink:href="#g16" y="19159"/><use xlink:href="#g17" y="19176"/><use xlink:href="#g18" y="19193"/><use xlink:href="#g19" y="19210"/><use xlink:href="#g20" y="19227"/><use xlink:href="#g21" y="19244"/><use xlink:href="#g22" y="19261"/><use xlink:href="#g23" y="19295"/><use xlink:href="#g24" y="19312"/><use xlink:href="#g25" y="19329"/><use xlink:href="#g26" y="19346"/><use xlink:href="#g27" y="19363"/><use xlink:href="#g28" y="19380"/><use xlink:href="#g29" y="19397"/><use xlink:href="#g30" y="19414"/><use xlink:href="#g31" y="19431"/><use xlink:href="#g32" y="19448"/><use xlink:href="#g33" y="19482"/><use xlink:href="#g34" y="19499"/><use xlink:href="#g20" y="19516"/><rect x="0" y="19533" width="8" height="17" class="foreground"/><use xlink:href="#g4" y="19533"/></g><g><use xlink:href="#g3" y="20026"/><use xlink:href="#g6" y="20043"/><use xlink:href="#g7" y="20060"/><use xlink:href="#g8" y="20077"/><use xlink:href="#g9" y="20094"/><use xlink:href="#g10" y="20111"/><use xlink:href="#g11" y="20128"/><use xlink:href="#g12" y="20145"/><use xlink:href="#g13" y="20162"/><use xlink:href="#g14" y="20179"/><use xlink:href="#g15" y="20196"/><use xlink:href="#g16" y="20213"/><use xlink:href="#g17" y="20230"/><use xlink:href="#g18" y="20247"/><use xlink:href="#g19" y="20264"/><use xlink:href="#g20" y="20281"/><use xlink:href="#g21" y="20298"/><use xlink:href="#g22" y="20315"/><use xlink:href="#g23" y="20349"/><use xlink:href="#g24" y="20366"/><use xlink:href="#g25" y="20383"/><use xlink:href="#g26" y="20400"/><use xlink:href="#g27" y="20417"/><use xlink:href="#g28" y="20434"/><use xlink:href="#g29" y="20451"/><use xlink:href="#g30" y="20468"/><use xlink:href="#g31" y="20485"/><use xlink:href="#g32" y="20502"/><use xlink:href="#g33" y="20536"/><use xlink:href="#g34" y="20553"/><use xlink:href="#g20" y="20570"/><use xlink:href="#g35" y="20587"/><rect x="0" y="20604" width="8" height="17" class="foreground"/><use xlink:href="#g4" y="20604"/></g><g><use xlink:href="#g3" y="21080"/><use xlink:href="#g6" y="21097"/><use xlink:href="#g7" y="21114"/><use xlink:href="#g8" y="21131"/><use xlink:href="#g9" y="21148"/><use xlink:href="#g10" y="21165"/><use xlink:href="#g11" y="21182"/><use xlink:href="#g12" y="21199"/><use xlink:href="#g13" y="21216"/><use xlink:href="#g14" y="21233"/><use xlink:href="#g15" y="21250"/><use xlink:href="#g16" y="21267"/><use xlink:href="#g17" y="21284"/><use xlink:href="#g18" y="21301"/><use xlink:href="#g19" y="21318"/><use xlink:href="#g20" y="21335"/><use xlink:href="#g21" y="21352"/><use xlink:href="#g22" y="21369"/><use xlink:href="#g23" y="21403"/><use xlink:href="#g24" y="21420"/><use xlink:href="#g25" y="21437"/><use xlink:href="#g26" y="21454"/><use xlink:href="#g27" y="21471"/><use xlink:href="#g28" y="21488"/><use xlink:href="#g29" y="21505"/><use xlink:href="#g30" y="21522"/><use xlink:href="#g31" y="21539"/><use xlink:href="#g32" y="21556"/><use xlink:href="#g33" y="21590"/><use xlink:href="#g34" y="21607"/><use xlink:href="#g20" y="21624"/><use xlink:href="#g35" y="21641"/><use xlink:href="#g36" y="21658"/><rect x="0" y="21675" width="8" height="17" class="foreground"/><use xlink:href="#g4" y="21675"/></g><g><use xlink:href="#g3" y="22134"/><use xlink:href="#g6" y="22151"/><use xlink:href="#g7" y="22168"/><use xlink:href="#g8" y="22185"/><use xlink:href="#g9" y="22202"/><use xlink:href="#g10" y="22219"/><use xlink:href="#g11" y="22236"/><use xlink:href="#g12" y="22253"/><use xlink:href="#g13" y="22270"/><use xlink:href="#g14" y="22287"/><use xlink:href="#g15" y="22304"/><use xlink:href="#g16" y="22321"/><use xlink:href="#g17" y="22338"/><use xlink:href="#g18" y="22355"/><use xlink:href="#g19" y="22372"/><use xlink:href="#g20" y="22389"/><use xlink:href="#g21" y="22406"/><use xlink:href="#g22" y="22423"/><use xlink:href="#g23" y="22457"/><use xlink:href="#g24" y="22474"/><use xlink:href="#g25" y="22491"/><use xlink:href="#g26" y="22508"/><use xlink:href="#g27" y="22525"/><use xlink:href="#g28" y="22542"/><use xlink:href="#g29" y="22559"/><use xlink:href="#g30" y="22576"/><use xlink:href="#g31" y="22593"/><use xlink:href="#g32" y="22610"/><use xlink:href="#g33" y="22644"/><use xlink:href="#g34" y="22661"/><use xlink:href="#g20" y="22678"/><use xlink:href="#g35" y="22695"/><use xlink:href="#g36" y="22712"/><use xlink:href="#g37" y="22729"/><use xlink:href="#g38" y="22746"/><rect x="0" y="22763" width="8" height="17" class="foreground"/><use xlink:href="#g4" y="22763"/></g><g><use xlink:href="#g3" y="23188"/><use xlink:href="#g6" y="23205"/><use xlink:href="#g7" y="23222"/><use xlink:href="#g8" y="23239"/><use xlink:href="#g9" y="23256"/><use xlink:href="#g10" y="23273"/><use xlink:href="#g11" y="23290"/><use xlink:href="#g12" y="23307"/><use xlink:href="#g13" y="23324"/><use xlink:href="#g14" y="23341"/><use xlink:href="#g15" y="23358"/><use xlink:href="#g16" y="23375"/><use xlink:href="#g17" y="23392"/><use xlink:href="#g18" y="23409"/><use xlink:href="#g19" y="23426"/><use xlink:href="#g20" y="23443"/><use xlink:href="#g21" y="23460"/><use xlink:href="#g22" y="23477"/><use xlink:href="#g23" y="23511"/><use xlink:href="#g24" y="23528"/><use xlink:href="#g25" y="23545"/><use xlink:href="#g26" y="23562"/><use xlink:href="#g27" y="23579"/><use xlink:href="#g28" y="23596"/><use xlink:href="#g29" y="23613"/><use xlink:href="#g30" y="23630"/><use xlink:href="#g31" y="23647"/><use xlink:href="#g32" y="23664"/><use xlink:href="#g33" y="23698"/><use xlink:href="#g34" y="23715"/><use xlink:href="#g20" y="23732"/><use xlink:href="#g35" y="23749"/><use xlink:href="#g36" y="23766"/><use xlink:href="#g37" y="23783"/><use xlink:href="#g38" y="23800"/><use xlink:href="#g39" y="23817"/><rect x="0" y="23834" width="8" height="17" class="foreground"/><use xlink:href="#g4" y="23834"/></g><g><use xlink:href="#g3" y="24242"/><use xlink:href="#g6" y="24259"/><use xlink:href="#g7" y="24276"/><use xlink:href="#g8" y="24293"/><use xlink:href="#g9" y="24310"/><use xlink:href="#g10" y="24327"/><use xlink:href="#g11" y="24344"/><use xlink:href="#g12" y="24361"/><use xlink:href="#g13" y="24378"/><use xlink:href="#g14" y="24395"/><use xlink:href="#g15" y="24412"/><use xlink:href="#g16" y="24429"/><use xlink:href="#g17" y="24446"/><use xlink:href="#g18" y="24463"/><use xlink:href="#g19" y="24480"/><use xlink:href="#g20" y="24497"/><use xlink:href="#g21" y="24514"/><use xlink:href="#g22" y="24531"/><use xlink:href="#g23" y="24565"/><use xlink:href="#g24" y="24582"/><use xlink:href="#g25" y="24599"/><use xlink:href="#g26" y="24616"/><use xlink:href="#g27" y="24633"/><use xlink:href="#g28" y="24650"/><use xlink:href="#g29" y="24667"/><use xlink:href="#g30" y="24684"/><use xlink:href="#g31" y="24701"/><use xlink:href="#g32" y="24718"/><use xlink:href="#g33" y="24752"/><use xlink:href="#g34" y="24769"/><use xlink:href="#g20" y="24786"/><use xlink:href="#g35" y="24803"/><use xlink:href="#g36" y="24820"/><use xlink:href="#g37" y="24837"/><use xlink:href="#g38" y="24854"/><use xlink:href="#g39" y="24871"/><use xlink:href="#g40" y="24888"/><rect x="0" y="24905" width="8" height="17" class="foreground"/><use xlink:href="#g4" y="24905"/></g><g><use xlink:href="#g3" y="25296"/><use xlink:href="#g6" y="25313"/><use xlink:href="#g7" y="25330"/><use xlink:href="#g8" y="25347"/><use xlink:href="#g9" y="25364"/><use xlink:href="#g10" y="25381"/><use xlink:href="#g11" y="25398"/><use xlink:href="#g12" y="25415"/><use xlink:href="#g13" y="25432"/><use xlink:href="#g14" y="25449"/><use xlink:href="#g15" y="25466"/><use xlink:href="#g16" y="25483"/><use xlink:href="#g17" y="25500"/><use xlink:href="#g18" y="25517"/><use xlink:href="#g19" y="25534"/><use xlink:href="#g20" y="25551"/><use xlink:href="#g21" y="25568"/><use xlink:href="#g22" y="25585"/><use xlink:href="#g23" y="25619"/><use xlink:href="#g24" y="25636"/><use xlink:href="#g25" y="25653"/><use xlink:href="#g26" y="25670"/><use xlink:href="#g27" y="25687"/><use xlink:href="#g28" y="25704"/><use xlink:href="#g29" y="25721"/><use xlink:href="#g30" y="25738"/><use xlink:href="#g31" y="25755"/><use xlink:href="#g32" y="25772"/><use xlink:href="#g33" y="25806"/><use xlink:href="#g34" y="25823"/><use xlink:href="#g20" y="25840"/><use xlink:href="#g35" y="25857"/><use xlink:href="#g36" y="25874"/><use xlink:href="#g37" y="25891"/><use xlink:href="#g38" y="25908"/><use xlink:href="#g39" y="25925"/><use xlink:href="#g40" y="25942"/><use xlink:href="#g41" y="25959"/><use xlink:href="#g42" y="25976"/><rect x="0" y="25993" width="8" height="17" class="foreground"/><use xlink:href="#g4" y="25993"/></g><g><use xlink:href="#g3" y="26350"/><use xlink:href="#g6" y="26367"/><use xlink:href="#g7" y="26384"/><use xlink:href="#g8" y="26401"/><use xlink:href="#g9" y="26418"/><use xlink:href="#g10" y="26435"/><use xlink:href="#g11" y="26452"/><use xlink:href="#g12" y="26469"/><use xlink:href="#g13" y="26486"/><use xlink:href="#g14" y="26503"/><use xlink:href="#g15" y="26520"/><use xlink:href="#g16" y="26537"/><use xlink:href="#g17" y="26554"/><use xlink:href="#g18" y="26571"/><use xlink:href="#g19" y="26588"/><use xlink:href="#g20" y="26605"/><use xlink:href="#g21" y="26622"/><use xlink:href="#g22" y="26639"/><use xlink:href="#g23" y="26673"/><use xlink:href="#g24" y="26690"/><use xlink:href="#g25" y="26707"/><use xlink:href="#g26" y="26724"/><use xlink:href="#g27" y="26741"/><use xlink:href="#g28" y="26758"/><use xlink:href="#g29" y="26775"/><use xlink:href="#g30" y="26792"/><use xlink:href="#g31" y="26809"/><use xlink:href="#g32" y="26826"/><use xlink:href="#g33" y="26860"/><use xlink:href="#g34" y="26877"/><use xlink:href="#g20" y="26894"/><use xlink:href="#g35" y="26911"/><use xlink:href="#g36" y="26928"/><use xlink:href="#g37" y="26945"/><use xlink:href="#g38" y="26962"/><use xlink:href="#g39" y="26979"/><use xlink:href="#g40" y="26996"/><use xlink:href="#g41" y="27013"/><use xlink:href="#g42" y="27030"/><use xlink:href="#g43" y="27047"/><rect x="0" y="27064" width="8" height="17" class="foreground"/><use xlink:href="#g4" y="27064"/></g><g><use xlink:href="#g3" y="27404"/><use xlink:href="#g6" y="27421"/><use xlink:href="#g7" y="27438"/><use xlink:href="#g8" y="27455"/><use xlink:href="#g9" y="27472"/><use xlink:href="#g10" y="27489"/><use xlink:href="#g11" y="27506"/><use xlink:href="#g12" y="27523"/><use xlink:href="#g13" y="27540"/><use xlink:href="#g14" y="27557"/><use xlink:href="#g15" y="27574"/><use xlink:href="#g16" y="27591"/><use xlink:href="#g17" y="27608"/><use xlink:href="#g18" y="27625"/><use xlink:href="#g19" y="27642"/><use xlink:href="#g20" y="27659"/><use xlink:href="#g21" y="27676"/><use xlink:href="#g22" y="27693"/><use xlink:href="#g23" y="27727"/><use xlink:href="#g24" y="27744"/><use xlink:href="#g25" y="27761"/><use xlink:href="#g26" y="27778"/><use xlink:href="#g27" y="27795"/><use xlink:href="#g28" y="27812"/><use xlink:href="#g29" y="27829"/><use xlink:href="#g30" y="27846"/><use xlink:href="#g31" y="27863"/><use xlink:href="#g32" y="27880"/><use xlink:href="#g33" y="27914"/><use xlink:href="#g34" y="27931"/><use xlink:href="#g20" y="27948"/><use xlink:href="#g35" y="27965"/><use xlink:href="#g36" y="27982"/><use xlink:href="#g37" y="27999"/><use xlink:href="#g38" y="28016"/><use xlink:href="#g39" y="28033"/><use xlink:href="#g40" y="28050"/><use xlink:href="#g41" y="28067"/><use xlink:href="#g42" y="28084"/><use xlink:href="#g43" y="28101"/><use xlink:href="#g44" y="28118"/><rect x="0" y="28135" width="8" height="17" class="foreground"/><use xlink:href="#g4" y="28135"/></g><g><use xlink:href="#g3" y="28458"/><use xlink:href="#g6" y="28475"/><use xlink:href="#g7" y="28492"/><use xlink:href="#g8" y="28509"/><use xlink:href="#g9" y="28526"/><use xlink:href="#g10" y="28543"/><use xlink:href="#g11" y="28560"/><use xlink:href="#g12" y="28577"/><use xlink:href="#g13" y="28594"/><use xlink:href="#g14" y="28611"/><use xlink:href="#g15" y="28628"/><use xlink:href="#g16" y="28645"/><use xlink:href="#g17" y="28662"/><use xlink:href="#g18" y="28679"/><use xlink:href="#g19" y="28696"/><use xlink:href="#g20" y="28713"/><use xlink:href="#g21" y="28730"/><use xlink:href="#g22" y="28747"/><use xlink:href="#g23" y="28781"/><use xlink:href="#g24" y="28798"/><use xlink:href="#g25" y="28815"/><use xlink:href="#g26" y="28832"/><use xlink:href="#g27" y="28849"/><use xlink:href="#g28" y="28866"/><use xlink:href="#g29" y="28883"/><use xlink:href="#g30" y="28900"/><use xlink:href="#g31" y="28917"/><use xlink:href="#g32" y="28934"/><use xlink:href="#g33" y="28968"/><use xlink:href="#g34" y="28985"/><use xlink:href="#g20" y="29002"/><use xlink:href="#g35" y="29019"/><use xlink:href="#g36" y="29036"/><use xlink:href="#g37" y="29053"/><use xlink:href="#g38" y="29070"/><use xlink:href="#g39" y="29087"/><use xlink:href="#g40" y="29104"/><use xlink:href="#g41" y="29121"/><use xlink:href="#g42" y="29138"/><use xlink:href="#g43" y="29155"/><use xlink:href="#g44" y="29172"/><use xlink:href="#g45" y="29189"/><use xlink:href="#g46" y="29206"/><rect x="0" y="29223" width="8" height="17" class="foreground"/><use xlink:href="#g4" y="29223"/></g><g><use xlink:href="#g3" y="29512"/><use xlink:href="#g6" y="29529"/><use xlink:href="#g7" y="29546"/><use xlink:href="#g8" y="29563"/><use xlink:href="#g9" y="29580"/><use xlink:href="#g10" y="29597"/><use xlink:href="#g11" y="29614"/><use xlink:href="#g12" y="29631"/><use xlink:href="#g13" y="29648"/><use xlink:href="#g14" y="29665"/><use xlink:href="#g15" y="29682"/><use xlink:href="#g16" y="29699"/><use xlink:href="#g17" y="29716"/><use xlink:href="#g18" y="29733"/><use xlink:href="#g19" y="29750"/><use xlink:href="#g20" y="29767"/><use xlink:href="#g21" y="29784"/><use xlink:href="#g22" y="29801"/><use xlink:href="#g23" y="29835"/><use xlink:href="#g24" y="29852"/><use xlink:href="#g25" y="29869"/><use xlink:href="#g26" y="29886"/><use xlink:href="#g27" y="29903"/><use xlink:href="#g28" y="29920"/><use xlink:href="#g29" y="29937"/><use xlink:href="#g30" y="29954"/><use xlink:href="#g31" y="29971"/><use xlink:href="#g32" y="29988"/><use xlink:href="#g33" y="30022"/><use xlink:href="#g34" y="30039"/><use xlink:href="#g20" y="30056"/><use xlink:href="#g35" y="30073"/><use xlink:href="#g36" y="30090"/><use xlink:href="#g37" y="30107"/><use xlink:href="#g38" y="30124"/><use xlink:href="#g39" y="30141"/><use xlink:href="#g40" y="30158"/><use xlink:href="#g41" y="30175"/><use xlink:href="#g42" y="30192"/><use xlink:href="#g43" y="30209"/><use xlink:href="#g44" y="30226"/><use xlink:href="#g45" y="30243"/><use xlink:href="#g46" y="30260"/><use xlink:href="#g47" y="30277"/><rect x="0" y="30294" width="8" height="17" class="foreground"/><use xlink:href="#g4" y="30294"/></g><g><use xlink:href="#g3" y="30566"/><use xlink:href="#g6" y="30583"/><use xlink:href="#g7" y="30600"/><use xlink:href="#g8" y="30617"/><use xlink:href="#g9" y="30634"/><use xlink:href="#g10" y="30651"/><use xlink:href="#g11" y="30668"/><use xlink:href="#g12" y="30685"/><use xlink:href="#g13" y="30702"/><use xlink:href="#g14" y="30719"/><use xlink:href="#g15" y="30736"/><use xlink:href="#g16" y="30753"/><use xlink:href="#g17" y="30770"/><use xlink:href="#g18" y="30787"/><use xlink:href="#g19" y="30804"/><use xlink:href="#g20" y="30821"/><use xlink:href="#g21" y="30838"/><use xlink:href="#g22" y="30855"/><use xlink:href="#g23" y="30889"/><use xlink:href="#g24" y="30906"/><use xlink:href="#g25" y="30923"/><use xlink:href="#g26" y="30940"/><use xlink:href="#g27" y="30957"/><use xlink:href="#g28" y="30974"/><use xlink:href="#g29" y="30991"/><use xlink:href="#g30" y="31008"/><use xlink:href="#g31" y="31025"/><use xlink:href="#g32" y="31042"/><use xlink:href="#g33" y="31076"/><use xlink:href="#g34" y="31093"/><use xlink:href="#g20" y="31110"/><use xlink:href="#g35" y="31127"/><use xlink:href="#g36" y="31144"/><use xlink:href="#g37" y="31161"/><use xlink:href="#g38" y="31178"/><use xlink:href="#g39" y="31195"/><use xlink:href="#g40" y="31212"/><use xlink:href="#g41" y="31229"/><use xlink:href="#g42" y="31246"/><use xlink:href="#g43" y="31263"/><use xlink:href="#g44" y="31280"/><use xlink:href="#g45" y="31297"/><use xlink:href="#g46" y="31314"/><use xlink:href="#g47" y="31331"/><use xlink:href="#g48" y="31348"/><rect x="0" y="31365" width="8" height="17" class="foreground"/><use xlink:href="#g4" y="31365"/></g><g><use xlink:href="#g3" y="31620"/><use xlink:href="#g6" y="31637"/><use xlink:href="#g7" y="31654"/><use xlink:href="#g8" y="31671"/><use xlink:href="#g9" y="31688"/><use xlink:href="#g10" y="31705"/><use xlink:href="#g11" y="31722"/><use xlink:href="#g12" y="31739"/><use xlink:href="#g13" y="31756"/><use xlink:href="#g14" y="31773"/><use xlink:href="#g15" y="31790"/><use xlink:href="#g16" y="31807"/><use xlink:href="#g17" y="31824"/><use xlink:href="#g18" y="31841"/><use xlink:href="#g19" y="31858"/><use xlink:href="#g20" y="31875"/><use xlink:href="#g21" y="31892"/><use xlink:href="#g22" y="31909"/><use xlink:href="#g23" y="31943"/><use xlink:href="#g24" y="31960"/><use xlink:href="#g25" y="31977"/><use xlink:href="#g26" y="31994"/><use xlink:href="#g27" y="32011"/><use xlink:href="#g28" y="32028"/><use xlink:href="#g29" y="32045"/><use xlink:href="#g30" y="32062"/><use xlink:href="#g31" y="32079"/><use xlink:href="#g32" y="32096"/><use xlink:href="#g33" y="32130"/><use xlink:href="#g34" y="32147"/><use xlink:href="#g20" y="32164"/><use xlink:href="#g35" y="32181"/><use xlink:href="#g36" y="32198"/><use xlink:href="#g37" y="32215"/><use xlink:href="#g38" y="32232"/><use xlink:href="#g39" y="32249"/><use xlink:href="#g40" y="32266"/><use xlink:href="#g41" y="32283"/><use xlink:href="#g42" y="32300"/><use xlink:href="#g43" y="32317"/><use xlink:href="#g44" y="32334"/><use xlink:href="#g45" y="32351"/><use xlink:href="#g46" y="32368"/><use xlink:href="#g47" y="32385"/><use xlink:href="#g48" y="32402"/><use xlink:href="#g49" y="32419"/><use xlink:href="#g42" y="32436"/><use xlink:href="#g50" y="32453"/><use xlink:href="#g51" y="32470"/><use xlink:href="#g52" y="32487"/><rect x="0" y="32504" width="8" height="17" class="foreground"/><use xlink:href="#g4" y="32504"/></g><g><use xlink:href="#g3" y="32674"/><use xlink:href="#g6" y="32691"/><use xlink:href="#g7" y="32708"/><use xlink:href="#g8" y="32725"/><use xlink:href="#g9" y="32742"/><use xlink:href="#g10" y="32759"/><use xlink:href="#g11" y="32776"/><use xlink:href="#g12" y="32793"/><use xlink:href="#g13" y="32810"/><use xlink:href="#g14" y="32827"/><use xlink:href="#g15" y="32844"/><use xlink:href="#g16" y="32861"/><use xlink:href="#g17" y="32878"/><use xlink:href="#g18" y="32895"/><use xlink:href="#g19" y="32912"/><use xlink:href="#g20" y="32929"/><use xlink:href="#g21" y="32946"/><use xlink:href="#g22" y="32963"/><use xlink:href="#g23" y="32997"/><use xlink:href="#g24" y="33014"/><use xlink:href="#g25" y="33031"/><use xlink:href="#g26" y="33048"/><use xlink:href="#g27" y="33065"/><use xlink:href="#g28" y="33082"/><use xlink:href="#g29" y="33099"/><use xlink:href="#g30" y="33116"/><use xlink:href="#g31" y="33133"/><use xlink:href="#g32" y="33150"/><use xlink:href="#g33" y="33184"/><use xlink:href="#g34" y="33201"/><use xlink:href="#g20" y="33218"/><use xlink:href="#g35" y="33235"/><use xlink:href="#g36" y="33252"/><use xlink:href="#g37" y="33269"/><use xlink:href="#g38" y="33286"/><use xlink:href="#g39" y="33303"/><use xlink:href="#g40" y="33320"/><use xlink:href="#g41" y="33337"/><use xlink:href="#g42" y="33354"/><use xlink:href="#g43" y="33371"/><use xlink:href="#g44" y="33388"/><use xlink:href="#g45" y="33405"/><use xlink:href="#g46" y="33422"/><use xlink:href="#g47" y="33439"/><use xlink:href="#g48" y="33456"/><use xlink:href="#g49" y="33473"/><use xlink:href="#g42" y="33490"/><use xlink:href="#g50" y="33507"/><use xlink:href="#g51" y="33524"/><use xlink:href="#g52" y="33541"/><use xlink:href="#g53" y="33558"/><rect x="0" y="33575" width="8" height="17" class="foreground"/><use xlink:href="#g4" y="33575"/></g><g><use xlink:href="#g3" y="33728"/><use xlink:href="#g6" y="33745"/><use xlink:href="#g7" y="33762"/><use xlink:href="#g8" y="33779"/><use xlink:href="#g9" y="33796"/><use xlink:href="#g10" y="33813"/><use xlink:href="#g11" y="33830"/><use xlink:href="#g12" y="33847"/><use xlink:href="#g13" y="33864"/><use xlink:href="#g14" y="33881"/><use xlink:href="#g15" y="33898"/><use xlink:href="#g16" y="33915"/><use xlink:href="#g17" y="33932"/><use xlink:href="#g18" y="33949"/><use xlink:href="#g19" y="33966"/><use xlink:href="#g20" y="33983"/><use xlink:href="#g21" y="34000"/><use xlink:href="#g22" y="34017"/><use xlink:href="#g23" y="34051"/><use xlink:href="#g24" y="34068"/><use xlink:href="#g25" y="34085"/><use xlink:href="#g26" y="34102"/><use xlink:href="#g27" y="34119"/><use xlink:href="#g28" y="34136"/><use xlink:href="#g29" y="34153"/><use xlink:href="#g30" y="34170"/><use xlink:href="#g31" y="34187"/><use xlink:href="#g32" y="34204"/><use xlink:href="#g33" y="34238"/><use xlink:href="#g34" y="34255"/><use xlink:href="#g20" y="34272"/><use xlink:href="#g35" y="34289"/><use xlink:href="#g36" y="34306"/><use xlink:href="#g37" y="34323"/><use xlink:href="#g38" y="34340"/><use xlink:href="#g39" y="34357"/><use xlink:href="#g40" y="34374"/><use xlink:href="#g41" y="34391"/><use xlink:href="#g42" y="34408"/><use xlink:href="#g43" y="34425"/><use xlink:href="#g44" y="34442"/><use xlink:href="#g45" y="34459"/><use xlink:href="#g46" y="34476"/><use xlink:href="#g47" y="34493"/><use xlink:href="#g48" y="34510"/><use xlink:href="#g49" y="34527"/><use xlink:href="#g42" y="34544"/><use xlink:href="#g50" y="34561"/><use xlink:href="#g51" y="34578"/><use xlink:href="#g52" y="34595"/><use xlink:href="#g53" y="34612"/><use xlink:href="#g54" y="34629"/><use xlink:href="#g42" y="34646"/><rect x="0" y="34663" width="8" height="17" class="foreground"/><use xlink:href="#g4" y="34663"/></g><g><use xlink:href="#g3" y="34782"/><use xlink:href="#g6" y="34799"/><use xlink:href="#g7" y="34816"/><use xlink:href="#g8" y="34833"/><use xlink:href="#g9" y="34850"/><use xlink:href="#g10" y="34867"/><use xlink:href="#g11" y="34884"/><use xlink:href="#g12" y="34901"/><use xlink:href="#g13" y="34918"/><use xlink:href="#g14" y="34935"/><use xlink:href="#g15" y="34952"/><use xlink:href="#g16" y="34969"/><use xlink:href="#g17" y="34986"/><use xlink:href="#g18" y="35003"/><use xlink:href="#g19" y="35020"/><use xlink:href="#g20" y="35037"/><use xlink:href="#g21" y="35054"/><use xlink:href="#g22" y="35071"/><use xlink:href="#g23" y="35105"/><use xlink:href="#g24" y="35122"/><use xlink:href="#g25" y="35139"/><use xlink:href="#g26" y="35156"/><use xlink:href="#g27" y="35173"/><use xlink:href="#g28" y="35190"/><use xlink:href="#g29" y="35207"/><use xlink:href="#g30" y="35224"/><use xlink:href="#g31" y="35241"/><use xlink:href="#g32" y="35258"/><use xlink:href="#g33" y="35292"/><use xlink:href="#g34" y="35309"/><use xlink:href="#g20" y="35326"/><use xlink:href="#g35" y="35343"/><use xlink:href="#g36" y="35360"/><use xlink:href="#g37" y="35377"/><use xlink:href="#g38" y="35394"/><use xlink:href="#g39" y="35411"/><use xlink:href="#g40" y="35428"/><use xlink:href="#g41" y="35445"/><use xlink:href="#g42" y="35462"/><use xlink:href="#g43" y="35479"/><use xlink:href="#g44" y="35496"/><use xlink:href="#g45" y="35513"/><use xlink:href="#g46" y="35530"/><use xlink:href="#g47" y="35547"/><use xlink:href="#g48" y="35564"/><use xlink:href="#g49" y="35581"/><use xlink:href="#g42" y="35598"/><use xlink:href="#g50" y="35615"/><use xlink:href="#g51" y="35632"/><use xlink:href="#g52" y="35649"/><use xlink:href="#g53" y="35666"/><use xlink:href="#g54" y="35683"/><use xlink:href="#g42" y="35700"/><use xlink:href="#g55" y="35717"/><rect x="0" y="35734" width="8" height="17" class="foreground"/><use xlink:href="#g4" y="35734"/></g><g><use xlink:href="#g3" y="35836"/><use xlink:href="#g6" y="35853"/><use xlink:href="#g7" y="35870"/><use xlink:href="#g8" y="35887"/><use xlink:href="#g9" y="35904"/><use xlink:href="#g10" y="35921"/><use xlink:href="#g11" y="35938"/><use xlink:href="#g12" y="35955"/><use xlink:href="#g13" y="35972"/><use xlink:href="#g14" y="35989"/><use xlink:href="#g15" y="36006"/><use xlink:href="#g16" y="36023"/><use xlink:href="#g17" y="36040"/><use xlink:href="#g18" y="36057"/><use xlink:href="#g19" y="36074"/><use xlink:href="#g20" y="36091"/><use xlink:href="#g21" y="36108"/><use xlink:href="#g22" y="36125"/><use xlink:href="#g23" y="36159"/><use xlink:href="#g24" y="36176"/><use xlink:href="#g25" y="36193"/><use xlink:href="#g26" y="36210"/><use xlink:href="#g27" y="36227"/><use xlink:href="#g28" y="36244"/><use xlink:href="#g29" y="36261"/><use xlink:href="#g30" y="36278"/><use xlink:href="#g31" y="36295"/><use xlink:href="#g32" y="36312"/><use xlink:href="#g33" y="36346"/><use xlink:href="#g34" y="36363"/><use xlink:href="#g20" y="36380"/><use xlink:href="#g35" y="36397"/><use xlink:href="#g36" y="36414"/><use xlink:href="#g37" y="36431"/><use xlink:href="#g38" y="36448"/><use xlink:href="#g39" y="36465"/><use xlink:href="#g40" y="36482"/><use xlink:href="#g41" y="36499"/><use xlink:href="#g42" y="36516"/><use xlink:href="#g43" y="36533"/><use xlink:href="#g44" y="36550"/><use xlink:href="#g45" y="36567"/><use xlink:href="#g46" y="36584"/><use xlink:href="#g47" y="36601"/><use xlink:href="#g48" y="36618"/><use xlink:href="#g49" y="36635"/><use xlink:href="#g42" y="36652"/><use xlink:href="#g50" y="36669"/><use xlink:href="#g51" y="36686"/><use xlink:href="#g52" y="36703"/><use xlink:href="#g53" y="36720"/><use xlink:href="#g54" y="36737"/><use xlink:href="#g42" y="36754"/><use xlink:href="#g55" y="36771"/><use xlink:href="#g56" y="36788"/><rect x="0" y="36805" width="8" height="17" class="foreground"/><use xlink:href="#g4" y="36805"/></g><g><use xlink:href="#g3" y="36890"/><use xlink:href="#g6" y="36907"/><use xlink:href="#g7" y="36924"/><use xlink:href="#g8" y="36941"/><use xlink:href="#g9" y="36958"/><use xlink:href="#g10" y="36975"/><use xlink:href="#g11" y="36992"/><use xlink:href="#g12" y="37009"/><use xlink:href="#g13" y="37026"/><use xlink:href="#g14" y="37043"/><use xlink:href="#g15" y="37060"/><use xlink:href="#g16" y="37077"/><use xlink:href="#g17" y="37094"/><use xlink:href="#g18" y="37111"/><use xlink:href="#g19" y="37128"/><use xlink:href="#g20" y="37145"/><use xlink:href="#g21" y="37162"/><use xlink:href="#g22" y="37179"/><use xlink:href="#g23" y="37213"/><use xlink:href="#g24" y="37230"/><use xlink:href="#g25" y="37247"/><use xlink:href="#g26" y="37264"/><use xlink:href="#g27" y="37281"/><use xlink:href="#g28" y="37298"/><use xlink:href="#g29" y="37315"/><use xlink:href="#g30" y="37332"/><use xlink:href="#g31" y="37349"/><use xlink:href="#g32" y="37366"/><use xlink:href="#g33" y="37400"/><use xlink:href="#g34" y="37417"/><use xlink:href="#g20" y="37434"/><use xlink:href="#g35" y="37451"/><use xlink:href="#g36" y="37468"/><use xlink:href="#g37" y="37485"/><use xlink:href="#g38" y="37502"/><use xlink:href="#g39" y="37519"/><use xlink:href="#g40" y="37536"/><use xlink:href="#g41" y="37553"/><use xlink:href="#g42" y="37570"/><use xlink:href="#g43" y="37587"/><use xlink:href="#g44" y="37604"/><use xlink:href="#g45" y="37621"/><use xlink:href="#g46" y="37638"/><use xlink:href="#g47" y="37655"/><use xlink:href="#g48" y="37672"/><use xlink:href="#g49" y="37689"/><use xlink:href="#g42" y="37706"/><use xlink:href="#g50" y="37723"/><use xlink:href="#g51" y="37740"/><use xlink:href="#g52" y="37757"/><use xlink:href="#g53" y="37774"/><use xlink:href="#g54" y="37791"/><use xlink:href="#g42" y="37808"/><use xlink:href="#g55" y="37825"/><use xlink:href="#g56" y="37842"/><use xlink:href="#g57" y="37859"/><use xlink:href="#g58" y="37876"/><rect x="0" y="37893" width="8" height="17" class="foreground"/><use xlink:href="#g4" y="37893"/></g><g><use xlink:href="#g3" y="37944"/><use xlink:href="#g6" y="37961"/><use xlink:href="#g7" y="37978"/><use xlink:href="#g8" y="37995"/><use xlink:href="#g9" y="38012"/><use xlink:href="#g10" y="38029"/><use xlink:href="#g11" y="38046"/><use xlink:href="#g12" y="38063"/><use xlink:href="#g13" y="38080"/><use xlink:href="#g14" y="38097"/><use xlink:href="#g15" y="38114"/><use xlink:href="#g16" y="38131"/><use xlink:href="#g17" y="38148"/><use xlink:href="#g18" y="38165"/><use xlink:href="#g19" y="38182"/><use xlink:href="#g20" y="38199"/><use xlink:href="#g21" y="38216"/><use xlink:href="#g22" y="38233"/><use xlink:href="#g23" y="38267"/><use xlink:href="#g24" y="38284"/><use xlink:href="#g25" y="38301"/><use xlink:href="#g26" y="38318"/><use xlink:href="#g27" y="38335"/><use xlink:href="#g28" y="38352"/><use xlink:href="#g29" y="38369"/><use xlink:href="#g30" y="38386"/><use xlink:href="#g31" y="38403"/><use xlink:href="#g32" y="38420"/><use xlink:href="#g33" y="38454"/><use xlink:href="#g34" y="38471"/><use xlink:href="#g20" y="38488"/><use xlink:href="#g35" y="38505"/><use xlink:href="#g36" y="38522"/><use xlink:href="#g37" y="38539"/><use xlink:href="#g38" y="38556"/><use xlink:href="#g39" y="38573"/><use xlink:href="#g40" y="38590"/><use xlink:href="#g41" y="38607"/><use xlink:href="#g42" y="38624"/><use xlink:href="#g43" y="38641"/><use xlink:href="#g44" y="38658"/><use xlink:href="#g45" y="38675"/><use xlink:href="#g46" y="38692"/><use xlink:href="#g47" y="38709"/><use xlink:href="#g48" y="38726"/><use xlink:href="#g49" y="38743"/><use xlink:href="#g42" y="38760"/><use xlink:href="#g50" y="38777"/><use xlink:href="#g51" y="38794"/><use xlink:href="#g52" y="38811"/><use xlink:href="#g53" y="38828"/><use xlink:href="#g54" y="38845"/><use xlink:href="#g42" y="38862"/><use xlink:href="#g55" y="38879"/><use xlink:href="#g56" y="38896"/><use xlink:href="#g57" y="38913"/><use xlink:href="#g58" y="38930"/><rect x="248" y="38947" width="8" height="17" class="foreground"/><use xlink:href="#g1" y="38947"/></g><g><use xlink:href="#g7" y="38998"/><use xlink:href="#g8" y="39015"/><use xlink:href="#g9" y="39032"/><use xlink:href="#g10" y="39049"/><use xlink:href="#g11" y="39066"/><use xlink:href="#g12" y="39083"/><use xlink:href="#g13" y="39100"/><use xlink:href="#g14" y="39117"/><use xlink:href="#g15" y="39134"/><use xlink:href="#g16" y="39151"/><use xlink:href="#g17" y="39168"/><use xlink:href="#g18" y="39185"/><use xlink:href="#g19" y="39202"/><use xlink:href="#g20" y="39219"/><use xlink:href="#g21" y="39236"/><use xlink:href="#g22" y="39253"/><use xlink:href="#g23" y="39287"/><use xlink:href="#g24" y="39304"/><use xlink:href="#g25" y="39321"/><use xlink:href="#g26" y="39338"/><use xlink:href="#g27" y="39355"/><use xlink:href="#g28" y="39372"/><use xlink:href="#g29" y="39389"/><use xlink:href="#g30" y="39406"/><use xlink:href="#g31" y="39423"/><use xlink:href="#g32" y="39440"/><use xlink:href="#g33" y="39474"/><use xlink:href="#g34" y="39491"/><use xlink:href="#g20" y="39508"/><use xlink:href="#g35" y="39525"/><use xlink:href="#g36" y="39542"/><use xlink:href="#g37" y="39559"/><use xlink:href="#g38" y="39576"/><use xlink:href="#g39" y="39593"/><use xlink:href="#g40" y="39610"/><use xlink:href="#g41" y="39627"/><use xlink:href="#g42" y="39644"/><use xlink:href="#g43" y="39661"/><use xlink:href="#g44" y="39678"/><use xlink:href="#g45" y="39695"/><use xlink:href="#g46" y="39712"/><use xlink:href="#g47" y="39729"/><use xlink:href="#g48" y="39746"/><use xlink:href="#g49" y="39763"/><use xlink:href="#g42" y="39780"/><use xlink:href="#g50" y="39797"/><use xlink:href="#g51" y="39814"/><use xlink:href="#g52" y="39831"/><use xlink:href="#g53" y="39848"/><use xlink:href="#g54" y="39865"/><use xlink:href="#g42" y="39882"/><use xlink:href="#g55" y="39899"/><use xlink:href="#g56" y="39916"/><use xlink:href="#g57" y="39933"/><use xlink:href="#g58" y="39950"/><use xlink:href="#g59" y="39967"/><use xlink:href="#g60" y="39984"/><rect x="0" y="40001" width="8" height="17" class="foreground"/><use xlink:href="#g4" y="40001"/></g></g></svg>
</svg>